HIERARCHY
ROOT Hips
{
    OFFSET 0.000000 0.000000 0.000000
    CHANNELS 6 Xposition Yposition Zposition Zrotation Xrotation Yrotation
    JOINT Spine
    {
        OFFSET -0.000000 7.246840 0.000000
        CHANNELS 3 Zrotation Xrotation Yrotation
        JOINT Spine1
        {
            OFFSET -0.000000 20.289354 0.000000
            CHANNELS 3 Zrotation Xrotation Yrotation
            JOINT Neck
            {
                OFFSET -0.000000 20.206032 1.836912
                CHANNELS 3 Zrotation Xrotation Yrotation
                JOINT Head
                {
                    OFFSET -0.000000 12.372654 -1.767522
                    CHANNELS 3 Zrotation Xrotation Yrotation
                    End Site
                    {
                        OFFSET -0.000000 22.094025 0.000000
                    }
                }
            }
            JOINT LeftShoulder
            {
                OFFSET 3.465871 17.201674 -0.568930
                CHANNELS 3 Zrotation Xrotation Yrotation
                JOINT LeftArm
                {
                    OFFSET 14.070313 0.000000 0.000000
                    CHANNELS 3 Zrotation Xrotation Yrotation
                    JOINT LeftForeArm
                    {
                        OFFSET 26.549477 0.000000 0.000000
                        CHANNELS 3 Zrotation Xrotation Yrotation
                        JOINT LeftHand
                        {
                            OFFSET 18.880413 0.000000 0.000000
                            CHANNELS 3 Zrotation Xrotation Yrotation
                            End Site
                            {
                                OFFSET 13.256415 0.000000 0.000000
                            }
                        }
                    }
                }
            }
            JOINT RightShoulder
            {
                OFFSET -3.526370 17.201674 -0.568930
                CHANNELS 3 Zrotation Xrotation Yrotation
                JOINT RightArm
                {
                    OFFSET -14.070313 0.000000 0.000000
                    CHANNELS 3 Zrotation Xrotation Yrotation
                    JOINT RightForeArm
                    {
                        OFFSET -26.549477 0.000000 0.000000
                        CHANNELS 3 Zrotation Xrotation Yrotation
                        JOINT RightHand
                        {
                            OFFSET -18.880413 0.000000 0.000000
                            CHANNELS 3 Zrotation Xrotation Yrotation
                            End Site
                            {
                                OFFSET -13.256415 0.000000 0.000000
                            }
                        }
                    }
                }
            }
        }
    }
    JOINT LeftUpLeg
    {
        OFFSET 8.837609 0.000000 0.000000
        CHANNELS 3 Zrotation Xrotation Yrotation
        JOINT LeftLeg
        {
            OFFSET -0.000000 -41.345005 0.000000
            CHANNELS 3 Zrotation Xrotation Yrotation
            JOINT LeftFoot
            {
                OFFSET -0.000000 -35.500874 0.000000
                CHANNELS 3 Zrotation Xrotation Yrotation
                JOINT LeftToeBase
                {
                    OFFSET -0.000000 -5.744446 13.256415
                    CHANNELS 3 Zrotation Xrotation Yrotation
                    End Site
                    {
                        OFFSET -0.000000 0.000000 3.535044
                    }
                }
            }
        }
    }
    JOINT RightUpLeg
    {
        OFFSET -8.837609 0.000000 0.000000
        CHANNELS 3 Zrotation Xrotation Yrotation
        JOINT RightLeg
        {
            OFFSET -0.000000 -41.345005 0.000000
            CHANNELS 3 Zrotation Xrotation Yrotation
            JOINT RightFoot
            {
                OFFSET -0.000000 -35.500874 0.000000
                CHANNELS 3 Zrotation Xrotation Yrotation
                JOINT RightToeBase
                {
                    OFFSET -0.000000 -5.744446 13.256415
                    CHANNELS 3 Zrotation Xrotation Yrotation
                    End Site
                    {
                        OFFSET -0.000000 0.000000 3.535044
                    }
                }
            }
        }
    }
}
MOTION
Frames:    12
Frame Time:    0.010000
31.020975    82.168770    -19.778065    0.243006    -1.714010    18.138927    -2.631198    2.226940    5.494844    2.430847    12.410666    5.179348    12.465973    31.388569    -20.477556    10.833124    -45.065708    -13.732590    14.153278    4.582386    7.923526    -52.617424    47.226913    -17.651350    6.567685    -19.773008    -120.432228    -37.806370    -2.112631    -18.896051    -11.380863    -3.436602    15.043812    -116.910988    -36.032665    175.203430    119.007782    -46.460773    -58.791965    83.250259    70.340553    -60.117096    -0.913836    -11.292977    9.465110    -0.904370    22.935503    -5.424836    9.359667    1.376820    -2.204509    -0.234508    -4.288936    0.337189    -13.493739    -24.443333    -4.535461    -179.787170    74.656494    -168.121902    2.604328    -9.746709    -32.377911    1.516667    -4.196477    -2.851242    
30.958742    82.302628    -19.367445    0.056956    -3.126895    19.940886    -3.122134    2.608782    4.640740    3.516700    13.268418    4.160481    13.905734    32.230247    -20.621954    10.562962    -45.918823    -13.600451    14.519495    3.725041    6.831194    -49.395485    48.159225    -21.283787    7.070153    -21.260090    -120.264633    -37.363071    -2.620407    -19.795256    -10.981451    -2.985090    14.239522    -117.728279    -35.010418    175.261551    117.888275    -47.945843    -60.046432    83.124382    71.355103    -59.613453    -0.445703    -10.132827    8.933975    -0.416915    23.350346    -6.737106    9.315796    1.211855    -2.158144    0.125651    -4.766089    -0.181232    -13.430908    -25.432196    -2.610171    178.484772    70.140762    -163.383850    1.561801    -10.552501    -35.122643    1.450333    -5.510808    -2.769805    
30.918264    82.451309    -18.965010    -0.095804    -4.632127    21.746120    -3.392644    2.996180    3.726218    4.303487    14.316244    3.096765    15.657158    32.943665    -20.662064    9.825922    -46.781384    -13.555375    15.040656    2.951154    5.730232    -46.500320    47.745655    -24.984863    7.033101    -21.324099    -120.366058    -37.032848    -2.682921    -20.114098    -10.429585    -2.580691    13.430374    -118.979004    -34.390255    175.161118    117.075623    -49.140350    -60.819134    81.549568    72.232239    -57.482979    0.099321    -8.933109    8.624688    0.167366    23.783440    -8.121875    9.315681    1.151646    -2.194014    -0.188976    -4.868314    0.272752    -13.373884    -26.475901    -0.703909    177.705856    66.017906    -160.099869    -0.305355    -10.515181    -37.462292    0.638485    -6.911316    -1.240777    
30.857450    82.612503    -18.582899    -0.229326    -6.204402    23.572683    -3.603342    3.713231    2.710298    5.030235    14.876115    1.936335    17.228880    34.059364    -20.702959    9.526827    -47.623848    -13.213440    15.517671    2.240945    4.608469    -43.528160    47.508617    -28.586452    7.043056    -21.711905    -120.405952    -36.800716    -2.984076    -20.501738    -9.769501    -2.092559    12.648972    -120.627342    -33.813828    174.990723    115.965607    -50.329983    -61.951176    79.987648    73.413307    -55.441975    0.753938    -7.744488    8.042351    0.621781    24.266020    -9.200780    9.477651    1.184717    -2.175956    -0.040087    -5.366789    0.058050    -13.940681    -27.381245    1.844155    174.811005    62.081760    -151.778000    -2.616335    -10.819634    -42.135696    0.759014    -8.062530    -1.496766    
30.811512    82.784081    -18.211180    -0.334718    -7.843299    25.295940    -3.543651    4.217167    1.475481    5.566213    15.790334    0.572523    18.018600    35.855423    -20.527643    10.277655    -48.858463    -12.008419    15.726054    1.543378    3.401356    -40.689682    46.583698    -31.397785    6.391750    -21.469238    -120.881325    -36.327927    -3.725214    -20.900318    -9.230692    -1.380991    12.614144    -122.768257    -33.814873    174.317017    117.531395    -50.394382    -60.396191    78.480446    74.335129    -53.612076    1.520636    -6.552772    7.481382    1.016055    24.796032    -9.965360    9.499555    1.183035    -2.320237    0.073359    -5.701291    -0.106464    -14.300241    -28.472404    3.833477    174.407288    58.830002    -148.803177    -4.030728    -10.999504    -44.061180    1.330400    -7.794851    -2.614294    
30.789202    82.967033    -17.856503    -0.368611    -9.532756    27.007101    -2.951752    4.728649    -0.393102    5.346149    17.096600    -1.319203    16.577057    37.206127    -19.244999    13.047599    -48.977184    -9.149355    15.781960    0.278332    3.641419    -37.518436    46.225658    -33.582607    5.565826    -21.486774    -121.762749    -35.801315    -4.814172    -21.875586    -9.234723    -1.435575    13.537856    -124.165947    -33.334053    173.760071    117.589584    -50.799854    -60.641140    80.415901    75.573509    -54.898598    2.308129    -5.352034    6.760004    1.333070    25.307133    -10.362887    9.035834    1.289174    -2.635047    0.483121    -6.409730    -0.704503    -14.735740    -29.690699    5.529281    174.531937    56.206917    -148.161911    -4.704002    -10.501779    -44.031483    1.398872    -9.472398    -2.809838    
30.782158    83.153763    -17.520510    -0.377252    -11.271931    28.623226    -3.377516    5.571794    -1.653715    6.777842    17.843801    -2.883394    17.128380    38.302132    -18.761292    12.715223    -49.615986    -8.429134    16.170341    -0.915564    2.563683    -35.839233    46.326836    -35.464977    5.871625    -22.302574    -121.863937    -35.478123    -5.112254    -22.093233    -9.295762    -0.952004    13.037078    -127.390251    -32.844986    172.683395    117.777290    -51.490200    -60.736248    79.762718    77.870995    -54.544415    3.157766    -4.153323    6.075409    1.672802    25.832304    -10.992972    8.972294    1.211953    -2.682051    0.488355    -6.441966    -0.712291    -15.455206    -30.979013    7.153997    174.368469    54.200592    -148.215012    -5.627344    -10.191854    -44.028236    1.123538    -9.661036    -2.262617    
30.773369    83.328003    -17.212473    -0.348574    -13.016358    30.305714    -3.811167    7.108050    -3.004408    8.192721    17.260696    -4.486771    18.322231    40.808632    -18.645542    12.163896    -51.135201    -7.659073    16.576790    -1.692043    0.820562    -36.809105    45.515686    -35.003941    6.062796    -21.732639    -122.497162    -36.033798    -4.181697    -21.223835    -8.863695    0.163842    12.862132    -131.661407    -32.163334    171.538223    117.737419    -51.990829    -60.980499    78.309563    80.037247    -52.871212    4.030469    -3.049636    5.323992    2.058836    26.482552    -11.767117    9.556273    1.117425    -2.660891    0.348928    -6.663301    -0.509699    -16.485760    -32.308281    8.658734    174.067184    52.620369    -146.706100    -6.313677    -10.525766    -45.053150    1.097250    -9.498337    -2.204875    
30.829542    83.490463    -16.917080    -0.285349    -14.834672    31.819855    -3.948072    8.092979    -4.385737    9.207564    18.270901    -6.148922    19.510895    41.403164    -18.044041    10.266325    -51.724110    -7.640971    17.567909    -2.606055    0.268873    -36.705566    44.796921    -36.053036    5.206805    -21.203241    -123.222183    -36.563362    -4.663773    -22.005831    -8.664649    0.038394    12.551692    -135.812027    -31.465687    170.279526    117.600006    -52.442448    -61.343960    75.590828    82.538071    -49.706257    4.904461    -1.837897    4.510306    2.455163    27.095720    -12.196061    9.676507    0.939911    -2.942501    0.137121    -6.857479    -0.200566    -17.831789    -33.577484    9.735459    173.910065    51.721085    -145.578918    -7.390969    -10.338114    -45.797935    1.050956    -9.839983    -2.121578    
30.851877    83.662697    -16.653072    -0.328863    -16.688320    33.190632    -3.937904    9.246209    -5.616889    10.296237    18.897615    -7.653512    20.878313    42.503445    -17.732069    8.327765    -52.725529    -7.747231    18.362635    -3.155690    -0.761300    -36.770203    43.911987    -36.597286    4.877318    -20.907482    -123.873367    -36.817883    -4.668581    -22.332483    -8.459864    0.000852    12.163596    -140.249039    -30.579527    168.882294    117.359627    -52.828270    -61.694878    66.345413    84.818054    -40.269444    5.959797    -0.738071    3.770148    2.895550    27.770540    -12.562738    9.659898    0.751857    -3.200366    0.200960    -7.202054    -0.294641    -19.092413    -34.962448    10.519808    173.779877    51.583042    -145.231918    -7.659605    -10.517956    -45.676086    1.163924    -9.337893    -2.333823    
30.895370    83.833847    -16.426222    -0.379834    -18.576391    34.388866    -2.164348    7.787335    -8.475389    8.236463    24.300255    -10.398944    16.092035    41.465267    -13.930114    13.095486    -51.218102    -2.644853    19.964817    -4.858494    1.964886    -32.787365    44.201004    -38.770042    4.579967    -23.593498    -125.022125    -37.670372    -7.063146    -24.168747    -8.927212    -2.332154    14.965429    -142.519470    -28.895243    167.109985    119.083817    -51.841103    -60.291679    72.641724    85.989166    -46.870148    7.056661    0.350444    3.021752    3.339487    28.497822    -12.947524    9.593368    0.540674    -3.327790    0.071860    -7.469043    -0.105552    -20.156075    -36.456810    10.909774    173.948029    52.167828    -146.637314    -7.053118    -11.211863    -44.173824    1.112165    -8.895304    -2.217022    
30.952805    84.005859    -16.269182    -0.488872    -20.172134    35.339725    -2.008677    8.449090    -9.764373    9.061503    25.352089    -11.954947    16.772526    42.763477    -13.282316    11.655244    -52.393692    -2.255606    20.631199    -5.193728    1.471526    -31.847788    43.981148    -39.715008    4.946125    -24.734478    -125.525856    -38.203583    -7.517479    -23.759495    -8.811501    -2.576141    15.337198    -147.032837    -27.522598    165.876907    120.072952    -51.384785    -59.222229    37.345669    87.501816    -11.571955    8.003515    1.099025    2.376027    3.835640    29.263716    -13.423470    9.584242    0.442401    -3.266318    0.150606    -7.985459    -0.222018    -21.560703    -38.188900    10.733232    174.285065    53.402233    -148.058929    -7.549850    -10.902198    -42.306030    1.293884    -8.963814    -2.581513    
